<?xml version="1.0" standalone="no"?>
<!DOCTYPE svg PUBLIC "-//W3C//DTD SVG 20010904//EN"
 "http://www.w3.org/TR/2001/REC-SVG-20010904/DTD/svg10.dtd">
<svg version="1.0" xmlns="http://www.w3.org/2000/svg"
 width="2400.000000pt" height="2400.000000pt" viewBox="0 0 2400.000000 2400.000000"
 preserveAspectRatio="xMidYMid meet">
<metadata>
Created by potrace 1.11, written by Peter Selinger 2001-2013
</metadata>
<g transform="translate(0.000000,2400.000000) scale(0.100000,-0.100000)"
fill="#000000" stroke="none">
<path d="M14690 21764 c-19 -2 -80 -9 -135 -15 -503 -54 -1114 -238 -1750
-527 l-170 -78 -210 106 c-225 114 -381 183 -565 248 -1113 397 -2131 283
-2935 -327 -128 -97 -376 -345 -483 -483 -355 -458 -569 -1016 -643 -1678 -20
-171 -17 -628 5 -815 61 -533 183 -964 375 -1330 268 -511 638 -936 1541
-1770 931 -859 1294 -1218 1727 -1705 122 -138 401 -469 484 -576 l47 -59 -45
-39 -45 -39 -82 84 c-44 46 -250 260 -457 474 -505 523 -1032 1029 -1456 1398
-1246 1084 -2304 1651 -3343 1791 -281 38 -754 50 -1066 26 -817 -62 -1538
-292 -2114 -673 -173 -114 -306 -224 -461 -377 -227 -226 -356 -401 -489 -665
-166 -328 -245 -638 -257 -1016 -20 -615 165 -1247 565 -1934 40 -68 40 -69
25 -105 -521 -1201 -667 -2216 -427 -2963 257 -795 914 -1273 1914 -1394 177
-21 632 -24 820 -4 840 85 1689 363 2760 902 1340 674 2602 1568 3480 2465
322 330 633 717 784 977 23 38 31 45 42 36 8 -6 14 -17 14 -23 0 -30 -342
-465 -535 -681 -365 -408 -707 -730 -1535 -1440 -771 -661 -1041 -908 -1308
-1195 -389 -418 -629 -752 -838 -1165 -137 -271 -218 -486 -304 -803 -18 -68
-36 -119 -39 -114 -3 5 -22 13 -41 17 -19 4 -40 11 -46 16 -28 23 -403 85
-674 113 -507 52 -1202 46 -1680 -15 -768 -97 -1320 -294 -1620 -576 -101 -95
-158 -168 -217 -279 -73 -138 -94 -216 -100 -376 -5 -119 -3 -151 17 -234 41
-177 147 -354 297 -494 340 -318 1003 -529 1894 -605 395 -33 517 -61 647
-148 85 -57 157 -139 282 -322 214 -312 394 -489 692 -675 1204 -753 3807
-1117 6248 -874 1364 135 2505 449 3191 876 238 149 401 295 616 555 158 191
212 242 313 291 70 34 82 36 190 40 140 5 238 -12 540 -93 113 -30 457 -120
765 -199 670 -173 1527 -395 1865 -482 472 -123 636 -149 883 -141 136 4 176
9 251 31 321 96 536 324 626 666 31 121 39 354 16 471 -10 46 -27 111 -38 143
l-20 60 26 125 c39 191 49 282 49 446 0 151 -20 311 -46 364 -11 23 -22 26
-162 48 -1455 223 -2965 1013 -4620 2414 -151 129 -543 476 -679 602 l-51 47
118 -70 c496 -295 958 -490 1462 -618 1351 -343 2513 -122 3112 591 256 306
405 675 459 1142 22 191 14 603 -15 823 -62 454 -206 990 -401 1486 -55 141
-61 162 -50 180 361 568 563 1083 632 1606 19 144 15 481 -6 620 -36 234 -95
420 -200 635 -117 238 -253 422 -467 630 -215 210 -430 361 -734 515 -851 433
-1958 576 -3135 404 -542 -79 -952 -207 -1455 -454 -599 -295 -1289 -770
-1945 -1339 -303 -263 -488 -438 -901 -850 -393 -393 -417 -416 -315 -292 381
460 622 717 1576 1676 860 865 1021 1039 1311 1410 583 748 907 1530 1028
2480 107 845 -17 1627 -343 2165 -312 514 -778 817 -1406 915 -100 16 -543 29
-630 19z m2060 -15005 c559 -493 1188 -1010 1792 -1474 136 -104 246 -190 245
-192 -2 -1 -82 9 -178 22 -97 13 -437 58 -755 100 -678 89 -1275 172 -1282
179 -3 3 1 65 7 138 37 410 20 913 -44 1315 -20 121 -20 121 13 91 15 -14 106
-94 202 -179z"/>
</g>
</svg>
