<svg version="1" xmlns="http://www.w3.org/2000/svg" width="3200" height="3200" viewBox="0 0 2400.000000 2400.000000"><path d="M1469 223.6c-1.9.2-8 .9-13.5 1.5-50.3 5.4-111.4 23.8-175 52.7l-17 7.8-21-10.6c-22.5-11.4-38.1-18.3-56.5-24.8-111.3-39.7-213.1-28.3-293.5 32.7-12.8 9.7-37.6 34.5-48.3 48.3-35.5 45.8-56.9 101.6-64.3 167.8-2 17.1-1.7 62.8.5 81.5 6.1 53.3 18.3 96.4 37.5 133 26.8 51.1 63.8 93.6 154.1 177 93.1 85.9 129.4 121.8 172.7 170.5 12.2 13.8 40.1 46.9 48.4 57.6l4.7 5.9-4.5 3.9-4.5 3.9-8.2-8.4c-4.4-4.6-25-26-45.7-47.4-50.5-52.3-103.2-102.9-145.6-139.8C864.7 828.3 758.9 771.6 655 757.6c-28.1-3.8-75.4-5-106.6-2.6-81.7 6.2-153.8 29.2-211.4 67.3-17.3 11.4-30.6 22.4-46.1 37.7-22.7 22.6-35.6 40.1-48.9 66.5-16.6 32.8-24.5 63.8-25.7 101.6-2 61.5 16.5 124.7 56.5 193.4 4 6.8 4 6.9 2.5 10.5-52.1 120.1-66.7 221.6-42.7 296.3 25.7 79.5 91.4 127.3 191.4 139.4 17.7 2.1 63.2 2.4 82 .4 84-8.5 168.9-36.3 276-90.2 134-67.4 260.2-156.8 348-246.5 32.2-33 63.3-71.7 78.4-97.7 2.3-3.8 3.1-4.5 4.2-3.6.8.6 1.4 1.7 1.4 2.3 0 3-34.2 46.5-53.5 68.1-36.5 40.8-70.7 73-153.5 144-77.1 66.1-104.1 90.8-130.8 119.5-38.9 41.8-62.9 75.2-83.8 116.5-13.7 27.1-21.8 48.6-30.4 80.3-1.8 6.8-3.6 11.9-3.9 11.4-.3-.5-2.2-1.3-4.1-1.7-1.9-.4-4-1.1-4.6-1.6-2.8-2.3-40.3-8.5-67.4-11.3-50.7-5.2-120.2-4.6-168 1.5-76.8 9.7-132 29.4-162 57.6-10.1 9.5-15.8 16.8-21.7 27.9-7.3 13.8-9.4 21.6-10 37.6-.5 11.9-.3 15.1 1.7 23.4 4.1 17.7 14.7 35.4 29.7 49.4 34 31.8 100.3 52.9 189.4 60.5 39.5 3.3 51.7 6.1 64.7 14.8 8.5 5.7 15.7 13.9 28.2 32.2 21.4 31.2 39.4 48.9 69.2 67.5 120.4 75.3 380.7 111.7 624.8 87.4 136.4-13.5 250.5-44.9 319.1-87.6 23.8-14.9 40.1-29.5 61.6-55.5 15.8-19.1 21.2-24.2 31.3-29.1 7-3.4 8.2-3.6 19-4 14-.5 23.8 1.2 54 9.3 11.3 3 45.7 12 76.5 19.9 67 17.3 152.7 39.5 186.5 48.2 47.2 12.3 63.6 14.9 88.3 14.1 13.6-.4 17.6-.9 25.1-3.1 32.1-9.6 53.6-32.4 62.6-66.6 3.1-12.1 3.9-35.4 1.6-47.1-1-4.6-2.7-11.1-3.8-14.3l-2-6 2.6-12.5c3.9-19.1 4.9-28.2 4.9-44.6 0-15.1-2-31.1-4.6-36.4-1.1-2.3-2.2-2.6-16.2-4.8-145.5-22.3-296.5-101.3-462-241.4-15.1-12.9-54.3-47.6-67.9-60.2l-5.1-4.7 11.8 7c49.6 29.5 95.8 49 146.2 61.8 135.1 34.3 251.3 12.2 311.2-59.1 25.6-30.6 40.5-67.5 45.9-114.2 2.2-19.1 1.4-60.3-1.5-82.3-6.2-45.4-20.6-99-40.1-148.6-5.5-14.1-6.1-16.2-5-18 36.1-56.8 56.3-108.3 63.2-160.6 1.9-14.4 1.5-48.1-.6-62-3.6-23.4-9.5-42-20-63.5-11.7-23.8-25.3-42.2-46.7-63-21.5-21-43-36.1-73.4-51.5-85.1-43.3-195.8-57.6-313.5-40.4-54.2 7.9-95.2 20.7-145.5 45.4-59.9 29.5-128.9 77-194.5 133.9-30.3 26.3-48.8 43.8-90.1 85-39.3 39.3-41.7 41.6-31.5 29.2 38.1-46 62.2-71.7 157.6-167.6 86-86.5 102.1-103.9 131.1-141 58.3-74.8 90.7-153 102.8-248 10.7-84.5-1.7-162.7-34.3-216.5-31.2-51.4-77.8-81.7-140.6-91.5-10-1.6-54.3-2.9-63-1.9zm206 1500.5c55.9 49.3 118.8 101 179.2 147.4 13.6 10.4 24.6 19 24.5 19.2-.2.1-8.2-.9-17.8-2.2-9.7-1.3-43.7-5.8-75.5-10-67.8-8.9-127.5-17.2-128.2-17.9-.3-.3.1-6.5.7-13.8 3.7-41 2-91.3-4.4-131.5-2-12.1-2-12.1 1.3-9.1 1.5 1.4 10.6 9.4 20.2 17.9z"/></svg>